# xmcd
#
# Track frame offsets:
#	150
#	16479
#	31114
#	47703
#	68540
#	82587
#	101657
#	114348
#	125475
#	140947
#	153539
#	172398
#	193090
#	205645
#	224631
#	230264
#	242561
#	258084
#	273576
#	283850
#	297094
#	310685
#
# Disc length: 4371 seconds
#
# Revision: 1
# Processed by: cddbd v1.5.1PL0 Copyright (c) Steve Scherf et al.
# Submitted via: audiograbber 1.83.01
#
DISCID=40111116
DTITLE=Michal Tucny - Po cestach toulavych
DYEAR=1900
DGENRE=
TTITLE0=Abych tu zil
TTITLE1=Indian banjo
TTITLE2=Umnet se narodit
TTITLE3=Byt hlidacem ruzi
TTITLE4=Je mi to lito
TTITLE5=Mesicku
TTITLE6=Tennessee lullaby
TTITLE7=Cesty toulavy
TTITLE8=S proudem si plout
TTITLE9=V ulickach mesta bakersfield
TTITLE10=Bajecna zenska
TTITLE11=Modra z dzin
TTITLE12=Rovnou, tady rovnou
TTITLE13=Vsichni jsou uz v Mexiku
TTITLE14=Bessie
TTITLE15=Buraky
TTITLE16=Cervena reka
TTITLE17=El Paso
TTITLE18=Ja tajne cvicim
TTITLE19=Jen tohle chci ti rict
TTITLE20=Necekej uz dal
TTITLE21=Tam u nebeskych bran
EXTD=
EXTT0=
EXTT1=
EXTT2=
EXTT3=
EXTT4=
EXTT5=
EXTT6=
EXTT7=
EXTT8=
EXTT9=
EXTT10=
EXTT11=
EXTT12=
EXTT13=
EXTT14=
EXTT15=
EXTT16=
EXTT17=
EXTT18=
EXTT19=
EXTT20=
EXTT21=
PLAYORDER=
